:SAMPLES-PER-SECOND 30
:FRAME-RANGE 1-1086
:FULLY-SPECIFIED
:DEGREES
645
root  112.221 37.8899 -8.80967 178.071 -18.2794 -177.431
RightUpLeg  13.1245 -9.66232 0.163789
RightLeg  25.2311 0.439684 0.00125875
RightFoot  -21.7724 0.621968 8.42114
RightToes  1.21801e-010 1.2921e-014 -6.02303e-014
Spine  -5.08695 7.02734 15.5972
Spine1  7.43098 8.55078 -9.26659
HEad  36.1381 68.0971 15.3671
LeftShoulder1  -0.801456 6.41339 -19.4149
LeftArm  -6.01298 28.3855 -42.3979
LeftForeArm  36.1318 7.67786 -12.0843
LeftHand  -0.0179076 7.21971 1.25418
RightShoulder  1.96077 4.17113 19.8814
RightArm  -23.3721 23.9441 35.1986
RightForeArm  49.2825 -0.980505 5.36385
RightHand  0.104445 -6.1718 -17.5731
LeftUpLeg  -21.5649 -4.03575 -7.69042
LeftLeg  4.54439 28.518 2.63078
LeftFoot  -4.77721 -0.249445 4.84972
LeftToes  3.79492e-011 -8.60219e-011 1.56273e-011
646
root  111.966 37.7388 -10.1975 177.891 -18.0237 -178.514
RightUpLeg  11.5117 -9.21029 -2.32817
RightLeg  34.0848 4.59746 3.09507
RightFoot  -19.3542 0.688157 11.6693
RightToes  1.21801e-010 1.2921e-014 -6.02303e-014
Spine  -5.01593 7.25854 13.7983
Spine1  8.0653 8.92738 -9.98257
HEad  36.4815 67.8498 16.4015
LeftShoulder1  -0.816401 6.49949 -19.1703
LeftArm  -6.06386 29.989 -42.3323
LeftForeArm  33.1932 7.69406 -11.8713
LeftHand  -0.023544 6.77067 1.01538
RightShoulder  2.02577 4.20613 20.6827
RightArm  -22.174 23.9884 37.5824
RightForeArm  51.4245 -1.05248 5.74072
RightHand  0.0182237 -5.61702 -16.5296
LeftUpLeg  -21.7011 -3.51242 -8.71401
LeftLeg  8.76511 29.278 4.71469
LeftFoot  1.47687 -1.0527 9.26964
LeftToes  3.79492e-011 -8.60219e-011 1.56273e-011
647
root  111.622 37.5844 -11.5393 177.774 -18.9723 -179.905
RightUpLeg  7.27913 -8.8285 -6.15039
RightLeg  46.9197 8.892 9.74593
RightFoot  -12.3975 0.07418 17.1213
RightToes  1.21801e-010 1.2921e-014 -6.02303e-014
Spine  -4.71904 6.79106 12.0164
Spine1  7.84248 8.43836 -10.1539
HEad  39.5197 67.8665 18.3685
LeftShoulder1  -0.953957 6.91196 -20.1172
LeftArm  -6.16792 29.8184 -42.2873
LeftForeArm  29.8613 7.72022 -11.7329
LeftHand  -0.0237335 6.14063 1.27351
RightShoulder  2.06447 4.36288 20.636
RightArm  -21.6131 23.7385 41.2224
RightForeArm  51.6521 -1.164 5.66822
RightHand  0.105564 -6.26402 -16.1286
LeftUpLeg  -22.0262 -2.54023 -10.726
LeftLeg  14.4033 25.7549 6.69823
LeftFoot  3.03697 -1.56275 12.1925
LeftToes  3.79492e-011 -8.60219e-011 1.56273e-011
648
root  111.352 37.3856 -12.7367 177.787 -21.8754 178.873
RightUpLeg  0.699424 -8.59847 -8.75343
RightLeg  60.679 8.01175 14.6349
RightFoot  -1.70817 -1.45487 17.0103
RightToes  1.21801e-010 1.2921e-014 -6.02303e-014
Spine  -4.36601 6.31628 10.3501
Spine1  8.24587 7.98298 -10.2612
HEad  38.4625 66.5898 16.4651
LeftShoulder1  -0.920406 6.86339 -19.4961
LeftArm  -8.50432 27.8642 -44.9809
LeftForeArm  28.0709 7.60991 -10.8879
LeftHand  -0.0275099 5.668 0.96467
RightShoulder  2.01412 4.12987 20.8098
RightArm  -19.2722 22.859 42.7567
RightForeArm  48.9862 0.141642 7.018
RightHand  0.291553 -7.54524 -16.6396
LeftUpLeg  -21.9343 -1.92159 -13.1346
LeftLeg  18.9435 21.9413 8.05399
LeftFoot  2.53255 -1.86853 15.1353
LeftToes  3.79492e-011 -8.60219e-011 1.56273e-011
649
root  111.08 37.322 -13.784 177.634 -24.7728 177.874
RightUpLeg  -5.83275 -6.03714 -9.48673
RightLeg  70.277 5.32712 15.4486
RightFoot  5.30051 -2.16424 14.9701
RightToes  1.21801e-010 1.2921e-014 -6.02303e-014
Spine  -3.93681 6.17384 9.15639
Spine1  9.076 7.69918 -10.0057
HEad  40.2058 66.0362 16.107
LeftShoulder1  -0.843006 6.52227 -19.8614
LeftArm  -10.2958 25.9782 -47.2635
LeftForeArm  24.2193 5.94805 -10.2634
LeftHand  -0.0297832 4.9055 0.963626
RightShoulder  2.02984 4.09921 21.1574
RightArm  -17.0515 23.267 43.4506
RightForeArm  49.8941 -0.0604928 8.08748
RightHand  0.156089 -6.65048 -15.9316
LeftUpLeg  -20.7773 -4.62049 -14.4949
LeftLeg  22.3894 21.5967 9.69266
LeftFoot  0.0685691 -1.41321 14.0648
LeftToes  3.79492e-011 -8.60219e-011 1.56273e-011
650
root  110.826 37.3761 -14.825 177.749 -27.877 176.91
RightUpLeg  -10.933 -3.11766 -10.1256
RightLeg  75.5692 3.22688 13.1909
RightFoot  0.900706 -1.20227 11.235
RightToes  1.21801e-010 1.2921e-014 -6.02303e-014
Spine  -3.5106 5.9617 7.86714
Spine1  9.11443 7.19267 -9.43431
HEad  45.1092 65.3989 18.95
LeftShoulder1  -0.900324 6.66405 -20.4999
LeftArm  -11.8617 24.4142 -48.8756
LeftForeArm  19.7866 3.63202 -9.70756
LeftHand  -0.0547798 3.12624 2.01552
RightShoulder  2.14274 4.49054 21.2432
RightArm  -16.2157 23.74 45.0078
RightForeArm  51.569 -0.762918 8.30081
RightHand  0.169479 -6.76521 -15.7709
LeftUpLeg  -18.8629 -6.31005 -15.7614
LeftLeg  23.7793 20.5258 9.91481
LeftFoot  -1.9024 -1.0876 13.249
LeftToes  3.79492e-011 -8.60219e-011 1.56273e-011
651
root  110.499 37.6427 -15.8788 177.297 -31.8824 177.057
RightUpLeg  -14.6961 -1.93746 -10.1477
RightLeg  76.1091 1.71056 6.82269
RightFoot  -1.41591 -0.572897 6.47879
RightToes  1.21801e-010 1.2921e-014 -6.02303e-014
Spine  -2.7632 5.66292 8.05368
Spine1  7.90752 6.7045 -8.76479
HEad  47.6412 63.53 19.8685
LeftShoulder1  -0.77746 6.17034 -20.8589
LeftArm  -14.3973 23.497 -50.0992
LeftForeArm  17.2895 1.32093 -8.75412
LeftHand  -0.0391686 2.42631 1.04506
RightShoulder  2.18913 4.53525 21.7098
RightArm  -14.707 23.751 46.3637
RightForeArm  50.6685 -0.136108 9.10812
RightHand  0.232022 -7.2414 -15.701
LeftUpLeg  -15.6351 -6.67975 -16.1074
LeftLeg  22.8943 17.6137 8.38482
LeftFoot  -3.31887 -0.898282 13.0351
LeftToes  3.79492e-011 -8.60219e-011 1.56273e-011
652
root  110.21 37.9354 -16.8673 176.672 -36.4601 177.861
RightUpLeg  -17.4152 -0.975956 -9.72867
RightLeg  72.671 0.0308853 -0.843434
RightFoot  -4.02478 -0.26348 3.69016
RightToes  1.21801e-010 1.2921e-014 -6.02303e-014
Spine  -2.19862 5.42166 8.9426
Spine1  7.00617 6.38969 -8.34374
HEad  46.4811 61.3727 17.5871
LeftShoulder1  -0.589482 5.49067 -20.6934
LeftArm  -16.3888 22.5892 -50.9283
LeftForeArm  16.0574 -1.35587 -8.12481
LeftHand  -0.0487384 2.08774 1.34452
RightShoulder  2.20951 4.40899 22.4773
RightArm  -13.1849 24.5829 47.8292
RightForeArm  49.6146 0.457927 9.82392
RightHand  0.266449 -7.44256 -16.0944
LeftUpLeg  -12.5165 -8.22994 -15.8616
LeftLeg  21.7923 15.0281 7.30353
LeftFoot  -4.25573 -0.778307 12.9271
LeftToes  3.79492e-011 -8.60219e-011 1.56273e-011
653
root  109.956 38.183 -17.8305 176.542 -41.7046 178.318
RightUpLeg  -18.9621 0.20353 -10.1316
RightLeg  65.8431 -2.12501 -5.82445
RightFoot  -7.47822 -0.0731065 0.663227
RightToes  1.21801e-010 1.2921e-014 -6.02303e-014
Spine  -2.12945 5.17041 9.25976
Spine1  6.43913 6.08586 -7.8303
HEad  43.7374 58.9876 14.2084
LeftShoulder1  -0.395951 4.78312 -20.502
LeftArm  -17.5515 21.6424 -50.4934
LeftForeArm  14.5097 -4.11178 -7.77004
LeftHand  -0.0571882 1.74072 1.54781
RightShoulder  2.20831 4.3012 22.8903
RightArm  -12.4964 25.9235 50.3608
RightForeArm  48.5091 0.849191 9.93731
RightHand  0.22438 -7.15646 -15.9209
LeftUpLeg  -9.8772 -9.56989 -15.8408
LeftLeg  20.805 11.6348 6.13122
LeftFoot  -4.97961 -0.692146 12.9366
LeftToes  3.79492e-011 -8.60219e-011 1.56273e-011
654
root  109.708 38.3515 -18.7454 176.537 -47.3467 178.898
RightUpLeg  -19.1572 1.66755 -11.0886
RightLeg  55.6441 -4.46157 -7.39944
RightFoot  -9.25989 -0.0762055 0.739327
RightToes  1.21801e-010 1.2921e-014 -6.02303e-014
Spine  -2.08228 4.94298 10.4177
Spine1  5.7825 6.02324 -8.00487
HEad  40.7841 56.4784 11.0108
LeftShoulder1  -0.209921 4.10161 -20.0253
LeftArm  -18.3965 20.4374 -49.0804
LeftForeArm  12.8739 -6.22451 -7.45963
LeftHand  -0.0721561 1.358 1.8956
RightShoulder  2.28017 4.5393 22.9322
RightArm  -11.9264 27.4302 53.4786
RightForeArm  46.9156 1.3714 9.90045
RightHand  0.245665 -7.28273 -16.1556
LeftUpLeg  -8.02273 -11.4601 -15.382
LeftLeg  20.5959 8.44206 4.7809
LeftFoot  -5.93606 -0.591036 13.2172
LeftToes  3.79492e-011 -8.60219e-011 1.56273e-011
655
root  109.444 38.4724 -19.5927 176.859 -53.0608 179.246
RightUpLeg  -18.0216 4.49765 -12.7882
RightLeg  42.4603 -6.20291 -6.32924
RightFoot  -8.71494 -0.127519 2.98037
RightToes  1.21801e-010 1.2921e-014 -6.02303e-014
Spine  -2.24928 5.12012 12.2081
Spine1  5.66935 6.50962 -8.7065
HEad  37.7076 54.073 7.62824
LeftShoulder1  -0.0160453 3.3661 -19.3714
LeftArm  -18.7377 18.5413 -47.0759
LeftForeArm  10.4807 -7.95669 -7.22479
LeftHand  -0.0826138 1.40865 2.22227
RightShoulder  2.33407 4.77601 22.7404
RightArm  -10.933 29.3745 56.5258
RightForeArm  45.1109 2.04624 10.0514
RightHand  0.237724 -7.1652 -16.6427
LeftUpLeg  -6.69199 -14.976 -14.9876
LeftLeg  20.8229 6.57084 3.70368
LeftFoot  -6.88293 -0.468575 13.0448
LeftToes  3.79492e-011 -8.60219e-011 1.56273e-011
